<?xml version="1.0" encoding="UTF-8"?>
<!DOCTYPE svg PUBLIC "-//W3C//DTD SVG 1.1//EN" "http://www.w3.org/Graphics/SVG/1.1/DTD/svg11.dtd">
<svg version="1.1" xmlns="http://www.w3.org/2000/svg" xmlns:xlink="http://www.w3.org/1999/xlink" x="0" y="0" width="300" height="300" viewBox="0, 0, 300, 300">
  <g id="Background">
    <rect x="0" y="0" width="300" height="300" fill="#000000" fill-opacity="0"/>
  </g>
  <g id="Layer_1">
    <path d="M-279.292,98.495 C-246.974,98.603 -214.426,100.788 -183.15,106.856 C-172.678,108.889 -162.254,111.332 -152.389,114.594 L-152.389,173.041 C-192.084,185.414 -236.372,188.992 -279.292,189.14 C-311.611,189.031 -344.159,186.847 -375.435,180.778 C-385.907,178.746 -396.331,176.303 -406.196,173.041 L-406.196,114.594 C-366.501,102.22 -322.213,98.643 -279.292,98.495 z" fill="#4A90E2"/>
    <path d="M-385.727,104.708 C-390.774,104.708 -394.865,100.617 -394.865,95.571 C-394.865,90.524 -390.774,86.433 -385.727,86.433 C-380.681,86.433 -376.59,90.524 -376.59,95.571 C-376.59,100.617 -380.681,104.708 -385.727,104.708 z" fill="#4A90E2"/>
    <path d="M-332.364,96.119 C-337.41,96.119 -341.501,92.028 -341.501,86.981 C-341.501,81.935 -337.41,77.844 -332.364,77.844 C-327.317,77.844 -323.226,81.935 -323.226,86.981 C-323.226,92.028 -327.317,96.119 -332.364,96.119 z" fill="#4A90E2"/>
    <path d="M-279.292,94.109 C-284.339,94.109 -288.43,90.018 -288.43,84.971 C-288.43,79.924 -284.339,75.833 -279.292,75.833 C-274.246,75.833 -270.155,79.924 -270.155,84.971 C-270.155,90.018 -274.246,94.109 -279.292,94.109 z" fill="#4A90E2"/>
    <path d="M-225.636,97.033 C-230.683,97.033 -234.774,92.942 -234.774,87.895 C-234.774,82.848 -230.683,78.757 -225.636,78.757 C-220.59,78.757 -216.499,82.848 -216.499,87.895 C-216.499,92.942 -220.59,97.033 -225.636,97.033 z" fill="#4A90E2"/>
    <path d="M-170.811,105.805 C-175.857,105.805 -179.948,101.714 -179.948,96.667 C-179.948,91.62 -175.857,87.529 -170.811,87.529 C-165.764,87.529 -161.673,91.62 -161.673,96.667 C-161.673,101.714 -165.764,105.805 -170.811,105.805 z" fill="#4A90E2"/>
    <path d="M-385.727,183.292 C-390.774,183.292 -394.865,187.383 -394.865,192.429 C-394.865,197.476 -390.774,201.567 -385.727,201.567 C-380.681,201.567 -376.59,197.476 -376.59,192.429 C-376.59,187.383 -380.681,183.292 -385.727,183.292 z" fill="#4A90E2"/>
    <path d="M-332.364,191.881 C-337.41,191.881 -341.501,195.972 -341.501,201.019 C-341.501,206.065 -337.41,210.156 -332.364,210.156 C-327.317,210.156 -323.226,206.065 -323.226,201.019 C-323.226,195.972 -327.317,191.881 -332.364,191.881 z" fill="#4A90E2"/>
    <path d="M-279.292,193.891 C-284.339,193.891 -288.43,197.982 -288.43,203.029 C-288.43,208.076 -284.339,212.167 -279.292,212.167 C-274.246,212.167 -270.155,208.076 -270.155,203.029 C-270.155,197.982 -274.246,193.891 -279.292,193.891 z" fill="#4A90E2"/>
    <path d="M-225.636,190.967 C-230.683,190.967 -234.774,195.058 -234.774,200.105 C-234.774,205.152 -230.683,209.243 -225.636,209.243 C-220.59,209.243 -216.499,205.152 -216.499,200.105 C-216.499,195.058 -220.59,190.967 -225.636,190.967 z" fill="#4A90E2"/>
    <path d="M-170.811,182.195 C-175.857,182.195 -179.948,186.286 -179.948,191.333 C-179.948,196.38 -175.857,200.471 -170.811,200.471 C-165.764,200.471 -161.673,196.38 -161.673,191.333 C-161.673,186.286 -165.764,182.195 -170.811,182.195 z" fill="#4A90E2"/>
    <path d="M-140.474,134.68 C-145.52,134.68 -149.611,138.771 -149.611,143.817 C-149.611,148.864 -145.52,152.955 -140.474,152.955 C-135.427,152.955 -131.336,148.864 -131.336,143.817 C-131.336,138.771 -135.427,134.68 -140.474,134.68 z" fill="#4A90E2"/>
    <path d="M-417.526,134.68 C-422.573,134.68 -426.664,138.771 -426.664,143.817 C-426.664,148.864 -422.573,152.955 -417.526,152.955 C-412.48,152.955 -408.389,148.864 -408.389,143.817 C-408.389,138.771 -412.48,134.68 -417.526,134.68 z" fill="#4A90E2"/>
    <path d="M432.789,98.944 L556.303,98.944 L556.303,142.282 L432.789,142.282 L432.789,98.944 z" fill="#4A90E2"/>
    <path d="M432.789,145.172 L556.303,145.172 L556.303,188.51 L432.789,188.51 L432.789,145.172 z" fill="#4A90E2"/>
    <path d="M560.059,145.172 L683.572,145.172 L683.572,188.51 L560.059,188.51 L560.059,145.172 z" fill="#4A90E2"/>
    <path d="M560.059,98.944 L683.572,98.944 L683.572,142.282 L560.059,142.282 L560.059,98.944 z" fill="#4A90E2"/>
    <path d="M456.084,96.958 C451.097,96.958 447.055,92.916 447.055,87.929 C447.055,82.943 451.097,78.901 456.084,78.901 C461.07,78.901 465.112,82.943 465.112,87.929 C465.112,92.916 461.07,96.958 456.084,96.958 z" fill="#4A90E2"/>
    <path d="M481.725,96.958 C476.739,96.958 472.696,92.916 472.696,87.929 C472.696,82.943 476.739,78.901 481.725,78.901 C486.712,78.901 490.754,82.943 490.754,87.929 C490.754,92.916 486.712,96.958 481.725,96.958 z" fill="#4A90E2"/>
    <path d="M507.367,96.958 C502.38,96.958 498.338,92.916 498.338,87.929 C498.338,82.943 502.38,78.901 507.367,78.901 C512.353,78.901 516.396,82.943 516.396,87.929 C516.396,92.916 512.353,96.958 507.367,96.958 z" fill="#4A90E2"/>
    <path d="M507.367,96.958 C502.38,96.958 498.338,92.916 498.338,87.929 C498.338,82.943 502.38,78.901 507.367,78.901 C512.353,78.901 516.396,82.943 516.396,87.929 C516.396,92.916 512.353,96.958 507.367,96.958 z" fill="#4A90E2"/>
    <path d="M533.008,96.958 C528.022,96.958 523.98,92.916 523.98,87.929 C523.98,82.943 528.022,78.901 533.008,78.901 C537.995,78.901 542.037,82.943 542.037,87.929 C542.037,92.916 537.995,96.958 533.008,96.958 z" fill="#4A90E2"/>
    <path d="M583.353,96.958 C578.366,96.958 574.324,92.916 574.324,87.929 C574.324,82.943 578.366,78.901 583.353,78.901 C588.339,78.901 592.381,82.943 592.381,87.929 C592.381,92.916 588.339,96.958 583.353,96.958 z" fill="#4A90E2"/>
    <path d="M608.994,96.958 C604.008,96.958 599.966,92.916 599.966,87.929 C599.966,82.943 604.008,78.901 608.994,78.901 C613.981,78.901 618.023,82.943 618.023,87.929 C618.023,92.916 613.981,96.958 608.994,96.958 z" fill="#4A90E2"/>
    <path d="M634.636,96.958 C629.65,96.958 625.607,92.916 625.607,87.929 C625.607,82.943 629.65,78.901 634.636,78.901 C639.622,78.901 643.665,82.943 643.665,87.929 C643.665,92.916 639.622,96.958 634.636,96.958 z" fill="#4A90E2"/>
    <path d="M634.636,96.958 C629.65,96.958 625.607,92.916 625.607,87.929 C625.607,82.943 629.65,78.901 634.636,78.901 C639.622,78.901 643.665,82.943 643.665,87.929 C643.665,92.916 639.622,96.958 634.636,96.958 z" fill="#4A90E2"/>
    <path d="M660.278,96.958 C655.291,96.958 651.249,92.916 651.249,87.929 C651.249,82.943 655.291,78.901 660.278,78.901 C665.264,78.901 669.306,82.943 669.306,87.929 C669.306,92.916 665.264,96.958 660.278,96.958 z" fill="#4A90E2"/>
    <path d="M456.084,208.734 C451.097,208.734 447.055,204.692 447.055,199.705 C447.055,194.719 451.097,190.676 456.084,190.676 C461.07,190.676 465.112,194.719 465.112,199.705 C465.112,204.692 461.07,208.734 456.084,208.734 z" fill="#4A90E2"/>
    <path d="M481.725,208.734 C476.739,208.734 472.696,204.692 472.696,199.705 C472.696,194.719 476.739,190.676 481.725,190.676 C486.712,190.676 490.754,194.719 490.754,199.705 C490.754,204.692 486.712,208.734 481.725,208.734 z" fill="#4A90E2"/>
    <path d="M507.367,208.734 C502.38,208.734 498.338,204.692 498.338,199.705 C498.338,194.719 502.38,190.676 507.367,190.676 C512.353,190.676 516.396,194.719 516.396,199.705 C516.396,204.692 512.353,208.734 507.367,208.734 z" fill="#4A90E2"/>
    <path d="M507.367,208.734 C502.38,208.734 498.338,204.692 498.338,199.705 C498.338,194.719 502.38,190.676 507.367,190.676 C512.353,190.676 516.396,194.719 516.396,199.705 C516.396,204.692 512.353,208.734 507.367,208.734 z" fill="#4A90E2"/>
    <path d="M533.008,208.734 C528.022,208.734 523.98,204.692 523.98,199.705 C523.98,194.719 528.022,190.676 533.008,190.676 C537.995,190.676 542.037,194.719 542.037,199.705 C542.037,204.692 537.995,208.734 533.008,208.734 z" fill="#4A90E2"/>
    <path d="M583.353,208.734 C578.366,208.734 574.324,204.692 574.324,199.705 C574.324,194.719 578.366,190.676 583.353,190.676 C588.339,190.676 592.381,194.719 592.381,199.705 C592.381,204.692 588.339,208.734 583.353,208.734 z" fill="#4A90E2"/>
    <path d="M608.994,208.734 C604.008,208.734 599.966,204.692 599.966,199.705 C599.966,194.719 604.008,190.676 608.994,190.676 C613.981,190.676 618.023,194.719 618.023,199.705 C618.023,204.692 613.981,208.734 608.994,208.734 z" fill="#4A90E2"/>
    <path d="M634.636,208.734 C629.65,208.734 625.607,204.692 625.607,199.705 C625.607,194.719 629.65,190.676 634.636,190.676 C639.622,190.676 643.665,194.719 643.665,199.705 C643.665,204.692 639.622,208.734 634.636,208.734 z" fill="#4A90E2"/>
    <path d="M634.636,208.734 C629.65,208.734 625.607,204.692 625.607,199.705 C625.607,194.719 629.65,190.676 634.636,190.676 C639.622,190.676 643.665,194.719 643.665,199.705 C643.665,204.692 639.622,208.734 634.636,208.734 z" fill="#4A90E2"/>
    <path d="M660.278,208.734 C655.291,208.734 651.249,204.692 651.249,199.705 C651.249,194.719 655.291,190.676 660.278,190.676 C665.264,190.676 669.306,194.719 669.306,199.705 C669.306,204.692 665.264,208.734 660.278,208.734 z" fill="#4A90E2"/>
    <path d="M421.305,129.642 C416.318,129.642 412.276,125.6 412.276,120.613 C412.276,115.627 416.318,111.585 421.305,111.585 C426.291,111.585 430.334,115.627 430.334,120.613 C430.334,125.6 426.291,129.642 421.305,129.642 z" fill="#4A90E2"/>
    <path d="M421.305,175.869 C416.318,175.869 412.276,171.827 412.276,166.841 C412.276,161.854 416.318,157.812 421.305,157.812 C426.291,157.812 430.334,161.854 430.334,166.841 C430.334,171.827 426.291,175.869 421.305,175.869 z" fill="#4A90E2"/>
    <path d="M694.695,129.642 C689.709,129.642 685.666,125.6 685.666,120.613 C685.666,115.627 689.709,111.585 694.695,111.585 C699.682,111.585 703.724,115.627 703.724,120.613 C703.724,125.6 699.682,129.642 694.695,129.642 z" fill="#4A90E2"/>
    <path d="M694.695,175.869 C689.709,175.869 685.666,171.827 685.666,166.841 C685.666,161.854 689.709,157.812 694.695,157.812 C699.682,157.812 703.724,161.854 703.724,166.841 C703.724,171.827 699.682,175.869 694.695,175.869 z" fill="#4A90E2"/>
    <path d="M100.063,57.917 L213.475,57.917 L213.475,65.58 L100.063,65.58 L100.063,57.917 z" fill="#4A90E2"/>
    <path d="M294.345,91.889 C294.345,98.943 288.627,104.661 281.573,104.661 C274.52,104.661 268.801,98.943 268.801,91.889 C268.801,84.836 274.52,79.118 281.573,79.118 C288.627,79.118 294.345,84.836 294.345,91.889 z" fill="#4A90E2"/>
    <path d="M17.201,104.661 C10.147,104.661 4.429,98.943 4.429,91.889 C4.429,84.836 10.147,79.118 17.201,79.118 C24.254,79.118 29.972,84.836 29.972,91.889 C29.972,98.943 24.254,104.661 17.201,104.661 z" fill="#4A90E2"/>
    <path d="M48.874,110.791 C41.821,110.791 36.103,105.073 36.103,98.02 C36.103,90.966 41.821,85.248 48.874,85.248 C55.928,85.248 61.646,90.966 61.646,98.02 C61.646,105.073 55.928,110.791 48.874,110.791 z" fill="#4A90E2"/>
    <path d="M80.548,113.856 C73.494,113.856 67.776,108.138 67.776,101.085 C67.776,94.031 73.494,88.313 80.548,88.313 C87.602,88.313 93.32,94.031 93.32,101.085 C93.32,108.138 87.602,113.856 80.548,113.856 z" fill="#4A90E2"/>
    <path d="M112.988,115.389 C105.934,115.389 100.216,109.671 100.216,102.617 C100.216,95.564 105.934,89.846 112.988,89.846 C120.042,89.846 125.76,95.564 125.76,102.617 C125.76,109.671 120.042,115.389 112.988,115.389 z" fill="#4A90E2"/>
    <path d="M186.552,115.389 C179.499,115.389 173.781,109.671 173.781,102.617 C173.781,95.564 179.499,89.846 186.552,89.846 C193.606,89.846 199.324,95.564 199.324,102.617 C199.324,109.671 193.606,115.389 186.552,115.389 z" fill="#4A90E2"/>
    <path d="M218.226,113.856 C211.172,113.856 205.454,108.138 205.454,101.085 C205.454,94.031 211.172,88.313 218.226,88.313 C225.279,88.313 230.997,94.031 230.997,101.085 C230.997,108.138 225.279,113.856 218.226,113.856 z" fill="#4A90E2"/>
    <path d="M249.899,110.791 C242.846,110.791 237.128,105.073 237.128,98.02 C237.128,90.966 242.846,85.248 249.899,85.248 C256.953,85.248 262.671,90.966 262.671,98.02 C262.671,105.073 256.953,110.791 249.899,110.791 z" fill="#4A90E2"/>
    <path d="M294.345,123.563 C294.345,130.616 288.627,136.334 281.573,136.334 C274.52,136.334 268.801,130.616 268.801,123.563 C268.801,116.509 274.52,110.791 281.573,110.791 C288.627,110.791 294.345,116.509 294.345,123.563 z" fill="#4A90E2"/>
    <path d="M17.201,136.334 C10.147,136.334 4.429,130.616 4.429,123.563 C4.429,116.509 10.147,110.791 17.201,110.791 C24.254,110.791 29.972,116.509 29.972,123.563 C29.972,130.616 24.254,136.334 17.201,136.334 z" fill="#4A90E2"/>
    <path d="M48.874,142.465 C41.821,142.465 36.103,136.747 36.103,129.693 C36.103,122.64 41.821,116.922 48.874,116.922 C55.928,116.922 61.646,122.64 61.646,129.693 C61.646,136.747 55.928,142.465 48.874,142.465 z" fill="#4A90E2"/>
    <path d="M80.548,145.53 C73.494,145.53 67.776,139.812 67.776,132.758 C67.776,125.705 73.494,119.987 80.548,119.987 C87.602,119.987 93.32,125.705 93.32,132.758 C93.32,139.812 87.602,145.53 80.548,145.53 z" fill="#4A90E2"/>
    <path d="M112.988,147.063 C105.934,147.063 100.216,141.345 100.216,134.291 C100.216,127.237 105.934,121.519 112.988,121.519 C120.042,121.519 125.76,127.237 125.76,134.291 C125.76,141.345 120.042,147.063 112.988,147.063 z" fill="#4A90E2"/>
    <path d="M186.552,147.063 C179.499,147.063 173.781,141.345 173.781,134.291 C173.781,127.237 179.499,121.519 186.552,121.519 C193.606,121.519 199.324,127.237 199.324,134.291 C199.324,141.345 193.606,147.063 186.552,147.063 z" fill="#4A90E2"/>
    <path d="M218.226,145.53 C211.172,145.53 205.454,139.812 205.454,132.758 C205.454,125.705 211.172,119.987 218.226,119.987 C225.279,119.987 230.997,125.705 230.997,132.758 C230.997,139.812 225.279,145.53 218.226,145.53 z" fill="#4A90E2"/>
    <path d="M249.899,142.465 C242.846,142.465 237.128,136.747 237.128,129.693 C237.128,122.64 242.846,116.922 249.899,116.922 C256.953,116.922 262.671,122.64 262.671,129.693 C262.671,136.747 256.953,142.465 249.899,142.465 z" fill="#4A90E2"/>
    <path d="M295.571,155.236 C295.571,162.29 289.853,168.008 282.799,168.008 C275.746,168.008 270.028,162.29 270.028,155.236 C270.028,148.183 275.746,142.465 282.799,142.465 C289.853,142.465 295.571,148.183 295.571,155.236 z" fill="#4A90E2"/>
    <path d="M18.427,168.008 C11.373,168.008 5.655,162.29 5.655,155.236 C5.655,148.183 11.373,142.465 18.427,142.465 C25.48,142.465 31.199,148.183 31.199,155.236 C31.199,162.29 25.48,168.008 18.427,168.008 z" fill="#4A90E2"/>
    <path d="M50.101,174.138 C43.047,174.138 37.329,168.42 37.329,161.367 C37.329,154.313 43.047,148.595 50.101,148.595 C57.154,148.595 62.872,154.313 62.872,161.367 C62.872,168.42 57.154,174.138 50.101,174.138 z" fill="#4A90E2"/>
    <path d="M81.774,177.204 C74.721,177.204 69.003,171.486 69.003,164.432 C69.003,157.378 74.721,151.66 81.774,151.66 C88.828,151.66 94.546,157.378 94.546,164.432 C94.546,171.486 88.828,177.204 81.774,177.204 z" fill="#4A90E2"/>
    <path d="M114.214,178.736 C107.161,178.736 101.442,173.018 101.442,165.965 C101.442,158.911 107.161,153.193 114.214,153.193 C121.268,153.193 126.986,158.911 126.986,165.965 C126.986,173.018 121.268,178.736 114.214,178.736 z" fill="#4A90E2"/>
    <path d="M187.778,178.736 C180.725,178.736 175.007,173.018 175.007,165.965 C175.007,158.911 180.725,153.193 187.778,153.193 C194.832,153.193 200.55,158.911 200.55,165.965 C200.55,173.018 194.832,178.736 187.778,178.736 z" fill="#4A90E2"/>
    <path d="M219.452,177.204 C212.398,177.204 206.68,171.486 206.68,164.432 C206.68,157.378 212.398,151.66 219.452,151.66 C226.506,151.66 232.224,157.378 232.224,164.432 C232.224,171.486 226.506,177.204 219.452,177.204 z" fill="#4A90E2"/>
    <path d="M251.126,174.138 C244.072,174.138 238.354,168.42 238.354,161.367 C238.354,154.313 244.072,148.595 251.126,148.595 C258.179,148.595 263.897,154.313 263.897,161.367 C263.897,168.42 258.179,174.138 251.126,174.138 z" fill="#4A90E2"/>
    <path d="M295.571,186.91 C295.571,193.964 289.853,199.682 282.799,199.682 C275.746,199.682 270.028,193.964 270.028,186.91 C270.028,179.856 275.746,174.138 282.799,174.138 C289.853,174.138 295.571,179.856 295.571,186.91 z" fill="#4A90E2"/>
    <path d="M18.427,199.682 C11.373,199.682 5.655,193.964 5.655,186.91 C5.655,179.856 11.373,174.138 18.427,174.138 C25.48,174.138 31.199,179.856 31.199,186.91 C31.199,193.964 25.48,199.682 18.427,199.682 z" fill="#4A90E2"/>
    <path d="M50.101,205.812 C43.047,205.812 37.329,200.094 37.329,193.04 C37.329,185.987 43.047,180.269 50.101,180.269 C57.154,180.269 62.872,185.987 62.872,193.04 C62.872,200.094 57.154,205.812 50.101,205.812 z" fill="#4A90E2"/>
    <path d="M81.774,208.877 C74.721,208.877 69.003,203.159 69.003,196.106 C69.003,189.052 74.721,183.334 81.774,183.334 C88.828,183.334 94.546,189.052 94.546,196.106 C94.546,203.159 88.828,208.877 81.774,208.877 z" fill="#4A90E2"/>
    <path d="M114.214,210.41 C107.161,210.41 101.442,204.692 101.442,197.638 C101.442,190.585 107.161,184.867 114.214,184.867 C121.268,184.867 126.986,190.585 126.986,197.638 C126.986,204.692 121.268,210.41 114.214,210.41 z" fill="#4A90E2"/>
    <path d="M187.778,210.41 C180.725,210.41 175.007,204.692 175.007,197.638 C175.007,190.585 180.725,184.867 187.778,184.867 C194.832,184.867 200.55,190.585 200.55,197.638 C200.55,204.692 194.832,210.41 187.778,210.41 z" fill="#4A90E2"/>
    <path d="M219.452,208.877 C212.398,208.877 206.68,203.159 206.68,196.106 C206.68,189.052 212.398,183.334 219.452,183.334 C226.506,183.334 232.224,189.052 232.224,196.106 C232.224,203.159 226.506,208.877 219.452,208.877 z" fill="#4A90E2"/>
    <path d="M251.126,205.812 C244.072,205.812 238.354,200.094 238.354,193.04 C238.354,185.987 244.072,180.269 251.126,180.269 C258.179,180.269 263.897,185.987 263.897,193.04 C263.897,200.094 258.179,205.812 251.126,205.812 z" fill="#4A90E2"/>
    <path d="M295.571,218.584 C295.571,225.637 289.853,231.355 282.799,231.355 C275.746,231.355 270.028,225.637 270.028,218.584 C270.028,211.53 275.746,205.812 282.799,205.812 C289.853,205.812 295.571,211.53 295.571,218.584 z" fill="#4A90E2"/>
    <path d="M18.427,231.355 C11.373,231.355 5.655,225.637 5.655,218.584 C5.655,211.53 11.373,205.812 18.427,205.812 C25.48,205.812 31.199,211.53 31.199,218.584 C31.199,225.637 25.48,231.355 18.427,231.355 z" fill="#4A90E2"/>
    <path d="M50.101,237.486 C43.047,237.486 37.329,231.768 37.329,224.714 C37.329,217.66 43.047,211.942 50.101,211.942 C57.154,211.942 62.872,217.66 62.872,224.714 C62.872,231.768 57.154,237.486 50.101,237.486 z" fill="#4A90E2"/>
    <path d="M81.774,240.551 C74.721,240.551 69.003,234.833 69.003,227.779 C69.003,220.726 74.721,215.008 81.774,215.008 C88.828,215.008 94.546,220.726 94.546,227.779 C94.546,234.833 88.828,240.551 81.774,240.551 z" fill="#4A90E2"/>
    <path d="M114.214,242.083 C107.161,242.083 101.442,236.365 101.442,229.312 C101.442,222.258 107.161,216.54 114.214,216.54 C121.268,216.54 126.986,222.258 126.986,229.312 C126.986,236.365 121.268,242.083 114.214,242.083 z" fill="#4A90E2"/>
    <path d="M187.778,242.083 C180.725,242.083 175.007,236.365 175.007,229.312 C175.007,222.258 180.725,216.54 187.778,216.54 C194.832,216.54 200.55,222.258 200.55,229.312 C200.55,236.365 194.832,242.083 187.778,242.083 z" fill="#4A90E2"/>
    <path d="M219.452,240.551 C212.398,240.551 206.68,234.833 206.68,227.779 C206.68,220.726 212.398,215.008 219.452,215.008 C226.506,215.008 232.224,220.726 232.224,227.779 C232.224,234.833 226.506,240.551 219.452,240.551 z" fill="#4A90E2"/>
    <path d="M251.126,237.486 C244.072,237.486 238.354,231.768 238.354,224.714 C238.354,217.66 244.072,211.942 251.126,211.942 C258.179,211.942 263.897,217.66 263.897,224.714 C263.897,231.768 258.179,237.486 251.126,237.486 z" fill="#4A90E2"/>
  </g>
</svg>
