<?xml version="1.0" encoding="UTF-8"?>
<!DOCTYPE svg PUBLIC "-//W3C//DTD SVG 1.1//EN" "http://www.w3.org/Graphics/SVG/1.1/DTD/svg11.dtd">
<svg version="1.1" xmlns="http://www.w3.org/2000/svg" xmlns:xlink="http://www.w3.org/1999/xlink" x="0" y="0" width="300" height="300" viewBox="0, 0, 300, 300">
  <g id="Background">
    <rect x="0" y="0" width="300" height="300" fill="#000000" fill-opacity="0"/>
  </g>
  <g id="Layer_1">
    <path d="M-279.292,98.495 C-246.974,98.603 -214.426,100.788 -183.15,106.856 C-172.678,108.889 -162.254,111.332 -152.389,114.594 L-152.389,173.041 C-192.084,185.414 -236.372,188.992 -279.292,189.14 C-311.611,189.031 -344.159,186.847 -375.435,180.778 C-385.907,178.746 -396.331,176.303 -406.196,173.041 L-406.196,114.594 C-366.501,102.22 -322.213,98.643 -279.292,98.495 z" fill="#4A90E2"/>
    <path d="M-385.727,104.708 C-390.774,104.708 -394.865,100.617 -394.865,95.571 C-394.865,90.524 -390.774,86.433 -385.727,86.433 C-380.681,86.433 -376.59,90.524 -376.59,95.571 C-376.59,100.617 -380.681,104.708 -385.727,104.708 z" fill="#4A90E2"/>
    <path d="M-332.364,96.119 C-337.41,96.119 -341.501,92.028 -341.501,86.981 C-341.501,81.935 -337.41,77.844 -332.364,77.844 C-327.317,77.844 -323.226,81.935 -323.226,86.981 C-323.226,92.028 -327.317,96.119 -332.364,96.119 z" fill="#4A90E2"/>
    <path d="M-279.292,94.109 C-284.339,94.109 -288.43,90.018 -288.43,84.971 C-288.43,79.924 -284.339,75.833 -279.292,75.833 C-274.246,75.833 -270.155,79.924 -270.155,84.971 C-270.155,90.018 -274.246,94.109 -279.292,94.109 z" fill="#4A90E2"/>
    <path d="M-225.636,97.033 C-230.683,97.033 -234.774,92.942 -234.774,87.895 C-234.774,82.848 -230.683,78.757 -225.636,78.757 C-220.59,78.757 -216.499,82.848 -216.499,87.895 C-216.499,92.942 -220.59,97.033 -225.636,97.033 z" fill="#4A90E2"/>
    <path d="M-170.811,105.805 C-175.857,105.805 -179.948,101.714 -179.948,96.667 C-179.948,91.62 -175.857,87.529 -170.811,87.529 C-165.764,87.529 -161.673,91.62 -161.673,96.667 C-161.673,101.714 -165.764,105.805 -170.811,105.805 z" fill="#4A90E2"/>
    <path d="M-385.727,183.292 C-390.774,183.292 -394.865,187.383 -394.865,192.429 C-394.865,197.476 -390.774,201.567 -385.727,201.567 C-380.681,201.567 -376.59,197.476 -376.59,192.429 C-376.59,187.383 -380.681,183.292 -385.727,183.292 z" fill="#4A90E2"/>
    <path d="M-332.364,191.881 C-337.41,191.881 -341.501,195.972 -341.501,201.019 C-341.501,206.065 -337.41,210.156 -332.364,210.156 C-327.317,210.156 -323.226,206.065 -323.226,201.019 C-323.226,195.972 -327.317,191.881 -332.364,191.881 z" fill="#4A90E2"/>
    <path d="M-279.292,193.891 C-284.339,193.891 -288.43,197.982 -288.43,203.029 C-288.43,208.076 -284.339,212.167 -279.292,212.167 C-274.246,212.167 -270.155,208.076 -270.155,203.029 C-270.155,197.982 -274.246,193.891 -279.292,193.891 z" fill="#4A90E2"/>
    <path d="M-225.636,190.967 C-230.683,190.967 -234.774,195.058 -234.774,200.105 C-234.774,205.152 -230.683,209.243 -225.636,209.243 C-220.59,209.243 -216.499,205.152 -216.499,200.105 C-216.499,195.058 -220.59,190.967 -225.636,190.967 z" fill="#4A90E2"/>
    <path d="M-170.811,182.195 C-175.857,182.195 -179.948,186.286 -179.948,191.333 C-179.948,196.38 -175.857,200.471 -170.811,200.471 C-165.764,200.471 -161.673,196.38 -161.673,191.333 C-161.673,186.286 -165.764,182.195 -170.811,182.195 z" fill="#4A90E2"/>
    <path d="M-140.474,134.68 C-145.52,134.68 -149.611,138.771 -149.611,143.817 C-149.611,148.864 -145.52,152.955 -140.474,152.955 C-135.427,152.955 -131.336,148.864 -131.336,143.817 C-131.336,138.771 -135.427,134.68 -140.474,134.68 z" fill="#4A90E2"/>
    <path d="M-417.526,134.68 C-422.573,134.68 -426.664,138.771 -426.664,143.817 C-426.664,148.864 -422.573,152.955 -417.526,152.955 C-412.48,152.955 -408.389,148.864 -408.389,143.817 C-408.389,138.771 -412.48,134.68 -417.526,134.68 z" fill="#4A90E2"/>
    <path d="M24.789,105.127 L148.303,105.127 L148.303,148.465 L24.789,148.465 L24.789,105.127 z" fill="#4A90E2"/>
    <path d="M24.789,151.354 L148.303,151.354 L148.303,194.692 L24.789,194.692 L24.789,151.354 z" fill="#4A90E2"/>
    <path d="M152.059,151.354 L275.572,151.354 L275.572,194.692 L152.059,194.692 L152.059,151.354 z" fill="#4A90E2"/>
    <path d="M152.059,105.127 L275.572,105.127 L275.572,148.465 L152.059,148.465 L152.059,105.127 z" fill="#4A90E2"/>
    <path d="M48.084,103.141 C43.097,103.141 39.055,99.098 39.055,94.112 C39.055,89.126 43.097,85.083 48.084,85.083 C53.07,85.083 57.112,89.126 57.112,94.112 C57.112,99.098 53.07,103.141 48.084,103.141 z" fill="#4A90E2"/>
    <path d="M73.725,103.141 C68.739,103.141 64.696,99.098 64.696,94.112 C64.696,89.126 68.739,85.083 73.725,85.083 C78.712,85.083 82.754,89.126 82.754,94.112 C82.754,99.098 78.712,103.141 73.725,103.141 z" fill="#4A90E2"/>
    <path d="M99.367,103.141 C94.38,103.141 90.338,99.098 90.338,94.112 C90.338,89.126 94.38,85.083 99.367,85.083 C104.353,85.083 108.396,89.126 108.396,94.112 C108.396,99.098 104.353,103.141 99.367,103.141 z" fill="#4A90E2"/>
    <path d="M99.367,103.141 C94.38,103.141 90.338,99.098 90.338,94.112 C90.338,89.126 94.38,85.083 99.367,85.083 C104.353,85.083 108.396,89.126 108.396,94.112 C108.396,99.098 104.353,103.141 99.367,103.141 z" fill="#4A90E2"/>
    <path d="M125.009,103.141 C120.022,103.141 115.98,99.098 115.98,94.112 C115.98,89.126 120.022,85.083 125.009,85.083 C129.995,85.083 134.037,89.126 134.037,94.112 C134.037,99.098 129.995,103.141 125.009,103.141 z" fill="#4A90E2"/>
    <path d="M175.353,103.141 C170.366,103.141 166.324,99.098 166.324,94.112 C166.324,89.126 170.366,85.083 175.353,85.083 C180.339,85.083 184.381,89.126 184.381,94.112 C184.381,99.098 180.339,103.141 175.353,103.141 z" fill="#4A90E2"/>
    <path d="M200.994,103.141 C196.008,103.141 191.966,99.098 191.966,94.112 C191.966,89.126 196.008,85.083 200.994,85.083 C205.981,85.083 210.023,89.126 210.023,94.112 C210.023,99.098 205.981,103.141 200.994,103.141 z" fill="#4A90E2"/>
    <path d="M226.636,103.141 C221.65,103.141 217.607,99.098 217.607,94.112 C217.607,89.126 221.65,85.083 226.636,85.083 C231.622,85.083 235.665,89.126 235.665,94.112 C235.665,99.098 231.622,103.141 226.636,103.141 z" fill="#4A90E2"/>
    <path d="M226.636,103.141 C221.65,103.141 217.607,99.098 217.607,94.112 C217.607,89.126 221.65,85.083 226.636,85.083 C231.622,85.083 235.665,89.126 235.665,94.112 C235.665,99.098 231.622,103.141 226.636,103.141 z" fill="#4A90E2"/>
    <path d="M252.278,103.141 C247.291,103.141 243.249,99.098 243.249,94.112 C243.249,89.126 247.291,85.083 252.278,85.083 C257.264,85.083 261.306,89.126 261.306,94.112 C261.306,99.098 257.264,103.141 252.278,103.141 z" fill="#4A90E2"/>
    <path d="M48.084,214.917 C43.097,214.917 39.055,210.874 39.055,205.888 C39.055,200.902 43.097,196.859 48.084,196.859 C53.07,196.859 57.112,200.902 57.112,205.888 C57.112,210.874 53.07,214.917 48.084,214.917 z" fill="#4A90E2"/>
    <path d="M73.725,214.917 C68.739,214.917 64.696,210.874 64.696,205.888 C64.696,200.902 68.739,196.859 73.725,196.859 C78.712,196.859 82.754,200.902 82.754,205.888 C82.754,210.874 78.712,214.917 73.725,214.917 z" fill="#4A90E2"/>
    <path d="M99.367,214.917 C94.38,214.917 90.338,210.874 90.338,205.888 C90.338,200.902 94.38,196.859 99.367,196.859 C104.353,196.859 108.396,200.902 108.396,205.888 C108.396,210.874 104.353,214.917 99.367,214.917 z" fill="#4A90E2"/>
    <path d="M99.367,214.917 C94.38,214.917 90.338,210.874 90.338,205.888 C90.338,200.902 94.38,196.859 99.367,196.859 C104.353,196.859 108.396,200.902 108.396,205.888 C108.396,210.874 104.353,214.917 99.367,214.917 z" fill="#4A90E2"/>
    <path d="M125.009,214.917 C120.022,214.917 115.98,210.874 115.98,205.888 C115.98,200.902 120.022,196.859 125.009,196.859 C129.995,196.859 134.037,200.902 134.037,205.888 C134.037,210.874 129.995,214.917 125.009,214.917 z" fill="#4A90E2"/>
    <path d="M175.353,214.917 C170.366,214.917 166.324,210.874 166.324,205.888 C166.324,200.902 170.366,196.859 175.353,196.859 C180.339,196.859 184.381,200.902 184.381,205.888 C184.381,210.874 180.339,214.917 175.353,214.917 z" fill="#4A90E2"/>
    <path d="M200.994,214.917 C196.008,214.917 191.966,210.874 191.966,205.888 C191.966,200.902 196.008,196.859 200.994,196.859 C205.981,196.859 210.023,200.902 210.023,205.888 C210.023,210.874 205.981,214.917 200.994,214.917 z" fill="#4A90E2"/>
    <path d="M226.636,214.917 C221.65,214.917 217.607,210.874 217.607,205.888 C217.607,200.902 221.65,196.859 226.636,196.859 C231.622,196.859 235.665,200.902 235.665,205.888 C235.665,210.874 231.622,214.917 226.636,214.917 z" fill="#4A90E2"/>
    <path d="M226.636,214.917 C221.65,214.917 217.607,210.874 217.607,205.888 C217.607,200.902 221.65,196.859 226.636,196.859 C231.622,196.859 235.665,200.902 235.665,205.888 C235.665,210.874 231.622,214.917 226.636,214.917 z" fill="#4A90E2"/>
    <path d="M252.278,214.917 C247.291,214.917 243.249,210.874 243.249,205.888 C243.249,200.902 247.291,196.859 252.278,196.859 C257.264,196.859 261.306,200.902 261.306,205.888 C261.306,210.874 257.264,214.917 252.278,214.917 z" fill="#4A90E2"/>
    <path d="M13.305,135.825 C8.318,135.825 4.276,131.783 4.276,126.796 C4.276,121.81 8.318,117.767 13.305,117.767 C18.291,117.767 22.334,121.81 22.334,126.796 C22.334,131.783 18.291,135.825 13.305,135.825 z" fill="#4A90E2"/>
    <path d="M13.305,182.052 C8.318,182.052 4.276,178.01 4.276,173.023 C4.276,168.037 8.318,163.995 13.305,163.995 C18.291,163.995 22.334,168.037 22.334,173.023 C22.334,178.01 18.291,182.052 13.305,182.052 z" fill="#4A90E2"/>
    <path d="M286.695,135.825 C281.709,135.825 277.666,131.783 277.666,126.796 C277.666,121.81 281.709,117.767 286.695,117.767 C291.682,117.767 295.724,121.81 295.724,126.796 C295.724,131.783 291.682,135.825 286.695,135.825 z" fill="#4A90E2"/>
    <path d="M286.695,182.052 C281.709,182.052 277.666,178.01 277.666,173.023 C277.666,168.037 281.709,163.995 286.695,163.995 C291.682,163.995 295.724,168.037 295.724,173.023 C295.724,178.01 291.682,182.052 286.695,182.052 z" fill="#4A90E2"/>
  </g>
</svg>
